<svg xmlns="http://www.w3.org/2000/svg" width="1200" height="800" viewBox="0 0 1200 800">
  <defs>
    <linearGradient id="bg" x1="0" y1="0" x2="1" y2="1">
      <stop offset="0" stop-color="#dcfce7"/>
      <stop offset="1" stop-color="#fefce8"/>
    </linearGradient>
    <linearGradient id="leaf" x1="0" y1="0" x2="0" y2="1">
      <stop offset="0" stop-color="#22c55e"/>
      <stop offset="1" stop-color="#166534"/>
    </linearGradient>
  </defs>
  <rect width="1200" height="800" fill="url(#bg)"/>
  <g opacity="0.92">
    <path d="M590 610c-40-120-140-160-210-170 10 90 70 190 210 170Z" fill="url(#leaf)"/>
    <path d="M610 610c40-120 140-160 210-170-10 90-70 190-210 170Z" fill="url(#leaf)"/>
    <path d="M600 630c-10-150 20-260 80-340-90 40-150 170-80 340Z" fill="url(#leaf)"/>
  </g>
  <rect x="470" y="620" width="260" height="110" rx="28" fill="#0f172a" opacity="0.10"/>
  <rect x="460" y="610" width="280" height="120" rx="30" fill="#ffffff" opacity="0.96"/>
  <text x="600" y="680" text-anchor="middle" font-family="ui-sans-serif,system-ui,Segoe UI,Arial" font-size="34" font-weight="800" fill="#14532d">
    Indoor Plant
  </text>
</svg>
